<svg width="34" height="36" viewBox="0 0 34 36" fill="none" xmlns="http://www.w3.org/2000/svg">
<path fill-rule="evenodd" clip-rule="evenodd" d="M21.5483 15.5627C21.5483 19.3279 18.5072 22.3652 14.7742 22.3652C11.0411 22.3652 8 19.3279 8 15.5627C8 11.7975 11.0411 8.76013 14.7742 8.76013C18.5072 8.76013 21.5483 11.7975 21.5483 15.5627ZM20.0139 23.8391C18.4996 24.8055 16.702 25.3652 14.7742 25.3652C9.37604 25.3652 5 20.9765 5 15.5627C5 10.1489 9.37604 5.76013 14.7742 5.76013C20.1723 5.76013 24.5483 10.1489 24.5483 15.5627C24.5483 17.9573 23.6922 20.1513 22.2702 21.8538L28.4844 28.1112L26.3704 30.2398L20.0139 23.8391Z" fill="black"/>
</svg>
